<mxfile host="app.diagrams.net" modified="2024-04-17T11:13:51.205Z" agent="Mozilla/5.0 (X11; Linux x86_64) AppleWebKit/537.36 (KHTML, like Gecko) Chrome/123.0.0.0 Safari/537.36" etag="572Z4dAC2XqZkxr1PSfB" version="24.2.5" type="github">
  <diagram name="第 1 页" id="G36y-n_s_inngZZLfQaa">
    <mxGraphModel dx="2045" dy="774" grid="1" gridSize="10" guides="1" tooltips="1" connect="1" arrows="1" fold="1" page="1" pageScale="1" pageWidth="827" pageHeight="1169" math="0" shadow="0">
      <root>
        <mxCell id="0" />
        <mxCell id="1" parent="0" />
        <mxCell id="rycqD75MoV5-pm7j_D73-3" value="" style="rounded=0;whiteSpace=wrap;html=1;" vertex="1" parent="1">
          <mxGeometry x="340" y="210" width="200" height="320" as="geometry" />
        </mxCell>
        <mxCell id="rycqD75MoV5-pm7j_D73-4" value="" style="rounded=0;whiteSpace=wrap;html=1;" vertex="1" parent="1">
          <mxGeometry x="710" y="210" width="200" height="320" as="geometry" />
        </mxCell>
        <mxCell id="rycqD75MoV5-pm7j_D73-5" value="" style="rounded=0;whiteSpace=wrap;html=1;" vertex="1" parent="1">
          <mxGeometry x="-20" y="210" width="200" height="320" as="geometry" />
        </mxCell>
        <mxCell id="rycqD75MoV5-pm7j_D73-6" value="&lt;font style=&quot;font-size: 14px;&quot;&gt;Images&lt;/font&gt;" style="text;html=1;align=center;verticalAlign=middle;whiteSpace=wrap;rounded=0;" vertex="1" parent="1">
          <mxGeometry x="414" y="170" width="60" height="30" as="geometry" />
        </mxCell>
        <mxCell id="rycqD75MoV5-pm7j_D73-7" value="&lt;font style=&quot;font-size: 14px;&quot;&gt;Containers&lt;/font&gt;" style="text;html=1;align=center;verticalAlign=middle;whiteSpace=wrap;rounded=0;" vertex="1" parent="1">
          <mxGeometry x="50" y="170" width="60" height="30" as="geometry" />
        </mxCell>
        <mxCell id="rycqD75MoV5-pm7j_D73-8" value="&lt;font style=&quot;font-size: 14px;&quot;&gt;Volumes&lt;/font&gt;" style="text;html=1;align=center;verticalAlign=middle;whiteSpace=wrap;rounded=0;" vertex="1" parent="1">
          <mxGeometry x="780" y="170" width="60" height="30" as="geometry" />
        </mxCell>
      </root>
    </mxGraphModel>
  </diagram>
</mxfile>
